<?xml version="1.0" encoding="UTF-8"?>
<svg version="1.1" xmlns="http://www.w3.org/2000/svg" width="151" height="194">
<path d="M0,0 L11,6 L26,16 L45,28 L50,32 L50,70 L46,69 L27,57 L16,50 L2,41 L-3,42 L-9,46 L-14,45 L-25,38 L-41,28 L-41,26 L-22,14 L-7,4 Z " fill="#000000" transform="translate(76,16)"/>
<path d="M0,0 L5,2 L27,16 L44,27 L55,34 L77,48 L94,59 L99,64 L99,101 L95,100 L79,90 L65,81 L43,67 L26,56 L1,40 L0,39 Z " fill="#000000" transform="translate(27,48)"/>
<path d="M0,0 L5,2 L24,14 L41,25 L47,29 L53,28 L59,24 L63,25 L81,36 L91,43 L87,47 L63,62 L51,70 L46,69 L31,59 L12,47 L0,39 Z " fill="#000000" transform="translate(27,111)"/>
</svg>
